<?xml version="1.0" standalone="no"?><!DOCTYPE svg PUBLIC "-//W3C//DTD SVG 1.1//EN" "http://www.w3.org/Graphics/SVG/1.1/DTD/svg11.dtd"><svg t="1608436666893" class="icon" viewBox="0 0 1024 1024" version="1.1" xmlns="http://www.w3.org/2000/svg" p-id="1746" xmlns:xlink="http://www.w3.org/1999/xlink" width="200" height="200"><defs><style type="text/css"></style></defs><path d="M896 616.32A106.666667 106.666667 0 0 0 855.04 533.333333a68.906667 68.906667 0 0 0 19.626667-48.213333A359.04 359.04 0 0 0 512 130.346667 359.04 359.04 0 0 0 149.333333 485.12 68.906667 68.906667 0 0 0 168.96 533.333333a105.173333 105.173333 0 0 0-1.92 165.12 61.226667 61.226667 0 0 0-17.706667 42.666667v52.266667a100.48 100.48 0 0 0 100.266667 100.266666h525.013333a100.48 100.48 0 0 0 100.053334-100.266666v-52.266667a61.226667 61.226667 0 0 0-17.706667-42.666667A105.386667 105.386667 0 0 0 896 616.32z m-725.333333 0a64 64 0 0 1 64-64h256l132.053333 78.506667a42.666667 42.666667 0 0 0 42.666667 0l130.56-77.653334a64 64 0 0 1-7.893334 128H234.666667a64 64 0 0 1-64-64.853333z m44.586666-106.666667A24.533333 24.533333 0 0 1 192 484.48a316.16 316.16 0 0 1 320-311.466667 316.16 316.16 0 0 1 320 311.466667h21.333333-21.333333a24.32 24.32 0 0 1-23.253333 24.746667H215.253333z m598.613334 213.333334a18.133333 18.133333 0 0 1 18.133333 18.133333v52.266667a57.6 57.6 0 0 1-57.386667 57.6H249.6a57.6 57.6 0 0 1-57.6-57.6v-52.266667a18.133333 18.133333 0 0 1 18.133333-18.133333h603.733334z" p-id="1747" fill="#515151"></path><path d="M432.64 278.826667m-21.333333 0a21.333333 21.333333 0 1 0 42.666666 0 21.333333 21.333333 0 1 0-42.666666 0Z" p-id="1748" fill="#515151"></path><path d="M614.4 289.92m-21.333333 0a21.333333 21.333333 0 1 0 42.666666 0 21.333333 21.333333 0 1 0-42.666666 0Z" p-id="1749" fill="#515151"></path><path d="M747.946667 386.986667m-21.333334 0a21.333333 21.333333 0 1 0 42.666667 0 21.333333 21.333333 0 1 0-42.666667 0Z" p-id="1750" fill="#515151"></path><path d="M280.533333 386.986667m-21.333333 0a21.333333 21.333333 0 1 0 42.666667 0 21.333333 21.333333 0 1 0-42.666667 0Z" p-id="1751" fill="#515151"></path></svg>